<svg version="1.1" id="logo" xmlns="http://www.w3.org/2000/svg" x="0" y="0" viewBox="0 0 233 47" style="enable-background:new 0 0 233 47" xml:space="preserve"><style>.st1{fill:#333}</style><g id="XMLID_00000002343645878912030540000008263751304632159660_"><path style="fill:#fff" d="M27.1 18.7 21 23.5l2.6 7.7-6.6-4.8-6.6 4.8 2.5-7.7-6-4.8h7.6L17 11l2.5 7.7z"/><path class="st1" d="m190.7 27.2 4.5-12.5h3.1L191.8 31h-2.5l-6.5-16.3h3.3l4.5 12.5zM171.3 28.8c.8 0 1.6-.1 2.3-.4.7-.3 1.3-.7 1.8-1.3.5-.6.9-1.2 1.1-1.9.3-.7.4-1.5.4-2.4 0-.8-.1-1.6-.4-2.3-.2-.7-.6-1.3-1.1-1.9-.5-.5-1.1-1-1.8-1.3-.7-.3-1.5-.5-2.3-.5-.9 0-1.6.1-2.3.5-.7.3-1.3.7-1.8 1.3-.5.5-.9 1.2-1.1 1.9-.3.8-.4 1.5-.4 2.3 0 .9.1 1.7.4 2.4.3.7.7 1.4 1.2 1.9s1.1 1 1.8 1.3c.6.3 1.3.4 2.2.4zm-.1-14.5c1.3 0 2.4.2 3.5.6 1 .4 2 1 2.8 1.7s1.4 1.7 1.8 2.7c.4 1 .7 2.2.7 3.5 0 1.3-.2 2.4-.7 3.5-.4 1-1 1.9-1.8 2.7-.8.8-1.7 1.4-2.8 1.8-1.1.4-2.2.6-3.5.6-1.3 0-2.4-.2-3.5-.6-1-.4-2-1-2.8-1.8-.8-.8-1.4-1.7-1.8-2.7-.4-1-.7-2.2-.7-3.5 0-1.3.2-2.5.7-3.5.4-1 1-1.9 1.8-2.7.8-.8 1.7-1.3 2.8-1.7 1.1-.4 2.3-.6 3.5-.6zM145.4 16.6c.8-.8 1.8-1.3 2.8-1.7 1.1-.4 2.2-.6 3.5-.6 1.3 0 2.5.2 3.6.6 1.1.4 1.9.9 2.6 1.5l-2 2.2c-.4-.5-1-.9-1.7-1.2-.8-.3-1.6-.5-2.4-.5-.9 0-1.6.1-2.3.5-.7.3-1.3.7-1.8 1.3-.5.5-.9 1.2-1.1 1.9-.3.8-.4 1.5-.4 2.3 0 .9.1 1.7.4 2.4.3.7.6 1.4 1.1 1.9.5.5 1.1 1 1.8 1.3.7.3 1.5.4 2.4.4 1.2 0 2.3-.2 3.2-.6v-4.1h-3.4v-2.4h6.2v8.4c-.8.4-1.7.7-2.7.9s-2.1.3-3.4.3c-1.3 0-2.5-.2-3.6-.6-1.1-.4-2-1-2.8-1.8-.8-.8-1.4-1.7-1.8-2.7-.4-1-.6-2.2-.6-3.5 0-1.3.2-2.5.7-3.5.3-1 .9-1.9 1.7-2.7zM139.1 30.6c-.4.3-.8.5-1.3.5-.2 0-.5 0-.7-.1-.2-.1-.4-.2-.6-.4-.2-.1-.3-.3-.4-.5-.1-.2-.1-.4-.1-.7 0-.5.2-.9.5-1.3.4-.4.8-.5 1.3-.5s.9.2 1.3.5.6.8.6 1.2-.3 1-.6 1.3zM131.8 26.5c-.5 1-1.2 1.9-2.1 2.5s-1.9 1.2-2.9 1.5c-1 .3-2.1.5-3.2.5h-5.8V14.7h5.8c1.1 0 2.1.1 3.2.4 1 .3 2 .7 2.9 1.4.9.6 1.6 1.5 2.1 2.5s.8 2.3.8 3.9c0 1.4-.3 2.6-.8 3.6zm-4.4.8c.6-.4 1.1-1 1.5-1.7.4-.7.6-1.6.6-2.7 0-1.2-.2-2.1-.6-2.9-.4-.7-.9-1.3-1.5-1.7-.6-.4-1.3-.7-2-.9-.7-.1-1.5-.2-2.2-.2h-2.4v11.3h2.4c.8 0 1.5-.1 2.2-.3.7-.2 1.4-.5 2-.9zM105.5 31.4c-.9 0-1.8-.1-2.6-.4-.8-.3-1.5-.7-2.1-1.3-.6-.6-1.1-1.2-1.4-2-.3-.8-.5-1.7-.5-2.7V14.7h2.9v10.2c0 .5.1 1 .2 1.4.1.5.3.9.6 1.2.3.4.7.7 1.1.9.5.2 1 .3 1.7.3s1.3-.1 1.7-.3c.5-.2.8-.5 1.1-.9.3-.4.5-.8.6-1.2.1-.5.2-.9.2-1.4V14.7h2.9V25c0 1-.2 1.9-.5 2.7-.3.8-.8 1.4-1.4 2-.6.6-1.3 1-2.1 1.3-.6.3-1.5.4-2.4.4zM85.2 28.8c.8 0 1.6-.1 2.3-.4.7-.3 1.3-.7 1.8-1.3.5-.6.9-1.2 1.2-1.9.3-.7.4-1.5.4-2.4 0-.8-.1-1.6-.4-2.3-.2-.7-.6-1.3-1.1-1.9-.5-.5-1.1-1-1.8-1.3-.7-.3-1.5-.5-2.3-.5-.8 0-1.6.1-2.3.5-.7.3-1.3.7-1.8 1.3-.5.5-.9 1.2-1.1 1.9-.3.8-.4 1.5-.4 2.3 0 .9.1 1.7.4 2.4.3.7.7 1.4 1.2 1.9s1.1 1 1.8 1.3c.5.3 1.3.4 2.1.4zm0-14.5c1.3 0 2.4.2 3.5.6 1 .4 2 1 2.8 1.7.8.8 1.4 1.7 1.8 2.7.4 1 .7 2.2.7 3.5 0 1.3-.2 2.4-.7 3.5-.4 1-1 1.9-1.8 2.7-.8.8-1.7 1.4-2.8 1.8-1.1.4-2.2.6-3.5.6-1.3 0-2.4-.2-3.5-.6-1-.4-2-1-2.8-1.8-.8-.8-1.4-1.7-1.8-2.7-.4-1-.7-2.2-.7-3.5 0-1.3.2-2.5.7-3.5.4-1 1-1.9 1.8-2.7.8-.8 1.7-1.3 2.8-1.7 1.1-.4 2.2-.6 3.5-.6zM73.8 28.4V31H64V14.7h2.9v13.7zM53.8 16.9c-.8 0-1.6.2-2.3.5-.7.3-1.3.7-1.8 1.3-.5.5-.9 1.2-1.1 1.9-.3.8-.4 1.5-.4 2.3 0 .9.1 1.7.4 2.4.3.7.6 1.4 1.1 1.9.5.5 1.1.9 1.7 1.2.7.3 1.4.4 2.3.4.9 0 1.7-.2 2.3-.5.7-.3 1.2-.8 1.6-1.4l2.3 1.6c-.7.9-1.6 1.6-2.6 2.1s-2.3.7-3.7.7c-1.3 0-2.5-.2-3.5-.6-1-.4-2-1-2.8-1.8-.8-.8-1.4-1.7-1.8-2.7-.4-1-.7-2.2-.7-3.5 0-1.3.2-2.5.7-3.5.4-1 1.1-1.9 1.9-2.7.8-.8 1.8-1.3 2.8-1.7 1.1-.4 2.2-.6 3.5-.6.5 0 1.1.1 1.6.1.6.1 1.1.2 1.6.5s1 .5 1.5.8c.5.3.8.7 1.2 1.1l-2.2 1.7c-.4-.6-1-1-1.7-1.3-.5-.1-1.2-.2-1.9-.2zM34 13.4V33L17 45.4 0 33V13.4l6.9 5.3 6 4.8-2.5 7.7 6.6-4.8 6.6 4.8-2.6-7.7 6.1-4.8z"/><path style="fill:#046cd5" d="m34 13.4-6.9 5.3h-7.6L17 11l-2.5 7.7H6.9L0 13.4 17 1z"/><path class="st1" d="M27.1 18.7zM6.9 18.7 0 13.4z"/></g></svg>