<svg id="dashboard-icon" width="24" height="24" viewBox="0 0 24 24" fill="none" xmlns="http://www.w3.org/2000/svg">
<ellipse cx="6.79073" cy="9.39579" rx="1.79073" ry="1.79073" fill="white"/>
<ellipse cx="11.9995" cy="14.6052" rx="1.79073" ry="1.79073" fill="white"/>
<ellipse cx="17.2092" cy="9.39579" rx="1.79073" ry="1.79073" fill="white"/>
<path fill-rule="evenodd" clip-rule="evenodd" d="M12.6333 5.00038C11.8341 5.00038 11.1863 5.64825 11.1863 6.44744V12.3024C11.441 12.2123 11.7151 12.1633 12.0006 12.1633C12.2859 12.1633 12.5597 12.2122 12.8142 12.3021V5.18126C12.8142 5.08137 12.7332 5.00038 12.6333 5.00038ZM12.8142 16.9083C12.5597 16.9982 12.2859 17.0471 12.0006 17.0471C11.7151 17.0471 11.441 16.9981 11.1863 16.908V17.5536C11.1863 18.3528 11.8341 19.0006 12.6333 19.0006C12.7332 19.0006 12.8142 18.9196 12.8142 18.8197V16.9083Z" fill="white"/>
<path fill-rule="evenodd" clip-rule="evenodd" d="M17.8426 5.00037C17.0434 5.00037 16.3955 5.64824 16.3955 6.44742V7.09293C16.6502 7.00288 16.9242 6.95388 17.2098 6.95388C17.4951 6.95388 17.7689 7.00281 18.0234 7.09273V5.18125C18.0234 5.08135 17.9425 5.00037 17.8426 5.00037ZM18.0234 11.6988C17.7689 11.7888 17.4951 11.8377 17.2098 11.8377C16.9242 11.8377 16.6502 11.7887 16.3955 11.6986V17.5536C16.3955 18.3527 17.0434 19.0006 17.8426 19.0006C17.9425 19.0006 18.0234 18.9196 18.0234 18.8197V11.6988Z" fill="white"/>
<path fill-rule="evenodd" clip-rule="evenodd" d="M7.42435 5.00037C6.62516 5.00037 5.97729 5.64824 5.97729 6.44742V7.09293C6.23197 7.00288 6.50603 6.95388 6.79154 6.95388C7.07685 6.95388 7.35072 7.00281 7.60523 7.09273V5.18125C7.60523 5.08135 7.52425 5.00037 7.42435 5.00037ZM7.60523 11.6988C7.35072 11.7888 7.07685 11.8377 6.79154 11.8377C6.50603 11.8377 6.23197 11.7887 5.97729 11.6986V17.5536C5.97729 18.3527 6.62516 19.0006 7.42435 19.0006C7.52425 19.0006 7.60523 18.9196 7.60523 18.8197V11.6988Z" fill="white"/>
<rect x="0.5" y="0.5" width="23" height="23" rx="5.5" stroke="white"/>
</svg>
