<svg id="cloud-pages-icon" width="20" height="24" viewBox="0 0 20 24" fill="none" xmlns="http://www.w3.org/2000/svg">
<path d="M10.7244 16.6045C10.8576 16.6045 11.0575 16.5379 11.1241 16.4712L13.1891 14.4063L15.2539 12.3414L18.851 8.74437C20.383 7.21232 20.383 4.68109 18.851 3.14904C17.3189 1.61699 14.7877 1.61699 13.2556 3.14904L5.52873 10.8759C5.39551 11.0091 5.3289 11.1424 5.39551 11.2756L5.46212 15.7385L3.33056 17.87C1.93173 16.2714 1.13239 14.2065 1.13239 12.0749C1.13239 9.74353 2.06495 7.54537 3.73023 5.88009C5.3289 4.21482 7.52707 3.34887 9.92507 3.34887C10.2581 3.34887 10.458 3.08243 10.458 2.81599C10.458 2.54954 10.1915 2.2831 9.92507 2.2831C7.26062 2.2831 4.79601 3.28226 2.93089 5.21399C0.999169 6.94587 0 9.47709 0 12.0749C0 14.7394 0.999169 17.204 2.93089 19.069C4.79601 20.9342 7.26062 22 9.92507 22C12.5895 22 15.0542 21.0008 16.9193 19.069C18.7844 17.204 19.8501 14.7394 19.8501 12.0749C19.8501 11.7419 19.5837 11.542 19.3173 11.542C18.9842 11.542 18.7844 11.8085 18.7844 12.0749C18.7844 14.4063 17.8518 16.6045 16.1865 18.2697C14.5212 19.935 12.3231 20.8675 9.99168 20.8675C7.86013 20.8675 5.79518 20.0682 4.19651 18.6694L6.32807 16.5379L10.7244 16.6045ZM10.5246 15.472H7.32723L8.32641 14.4729L11.4571 14.5395L10.5246 15.472ZM10.3914 12.408L13.5221 12.4746L12.523 13.4737L9.39218 13.3405L10.3914 12.408ZM6.5279 11.4754L14.0549 3.94837C15.1873 2.81599 16.9193 2.81599 18.0516 3.94837C18.5845 4.48126 18.851 5.21399 18.851 5.9467C18.851 6.67942 18.5845 7.41215 18.0516 7.94503L14.6544 11.3422L11.5237 11.2756L14.1882 8.61115C14.3881 8.41132 14.3881 8.01165 14.1882 7.81182C13.9883 7.61198 13.5887 7.61198 13.3888 7.81182L7.7269 13.4737L6.5279 14.6727V11.4754Z" fill="white"/>
</svg>
