<svg id="cloud-pages-icon" width="20" height="20" viewBox="0 0 20 20" fill="none" xmlns="http://www.w3.org/2000/svg">
<path d="M10.7244 14.6045C10.8576 14.6045 11.0575 14.5379 11.1241 14.4712L13.1891 12.4063L15.2539 10.3414L18.851 6.74437C20.383 5.21232 20.383 2.68109 18.851 1.14904C17.3189 -0.383013 14.7877 -0.383013 13.2556 1.14904L5.52873 8.87592C5.39551 9.00915 5.3289 9.14237 5.39551 9.27558L5.46212 13.7385L3.33056 15.87C1.93173 14.2714 1.13239 12.2065 1.13239 10.0749C1.13239 7.74353 2.06495 5.54537 3.73023 3.88009C5.3289 2.21482 7.52707 1.34887 9.92507 1.34887C10.2581 1.34887 10.458 1.08243 10.458 0.815985C10.458 0.549541 10.1915 0.283096 9.92507 0.283096C7.26062 0.283096 4.79601 1.28226 2.93089 3.21399C0.999169 4.94587 0 7.47709 0 10.0749C0 12.7394 0.999169 15.204 2.93089 17.069C4.79601 18.9342 7.26062 20 9.92507 20C12.5895 20 15.0542 19.0008 16.9193 17.069C18.7844 15.204 19.8501 12.7394 19.8501 10.0749C19.8501 9.74187 19.5837 9.54203 19.3173 9.54203C18.9842 9.54203 18.7844 9.80848 18.7844 10.0749C18.7844 12.4063 17.8518 14.6045 16.1865 16.2697C14.5212 17.935 12.3231 18.8675 9.99168 18.8675C7.86013 18.8675 5.79518 18.0682 4.19651 16.6694L6.32807 14.5379L10.7244 14.6045ZM10.5246 13.472H7.32723L8.32641 12.4729L11.4571 12.5395L10.5246 13.472ZM10.3914 10.408L13.5221 10.4746L12.523 11.4737L9.39218 11.3405L10.3914 10.408ZM6.5279 9.47542L14.0549 1.94837C15.1873 0.815985 16.9193 0.815985 18.0516 1.94837C18.5845 2.48126 18.851 3.21399 18.851 3.9467C18.851 4.67942 18.5845 5.41215 18.0516 5.94503L14.6544 9.3422L11.5237 9.27558L14.1882 6.61115C14.3881 6.41132 14.3881 6.01165 14.1882 5.81182C13.9883 5.61198 13.5887 5.61198 13.3888 5.81182L7.7269 11.4737L6.5279 12.6727V9.47542Z" fill="white"/>
</svg>
