<svg id="cloud-gov-text" width="101" height="12" viewBox="0 0 101 12" fill="none" xmlns="http://www.w3.org/2000/svg">
<path d="M96.0176 9.18358L98.9677 1.06791H101L96.7388 11.6507H95.0998L90.8386 1.06791H93.002L95.9521 9.18358H96.0176ZM83.2995 10.2224C83.824 10.2224 84.3485 10.1575 84.8074 9.96269C85.2663 9.76791 85.6596 9.50821 85.9874 9.11866C86.3152 8.7291 86.5774 8.33955 86.7085 7.88508C86.9052 7.4306 86.9707 6.91119 86.9707 6.32687C86.9707 5.80746 86.9052 5.28806 86.7085 4.83358C86.5774 4.37911 86.3152 3.98955 85.9874 3.6C85.6596 3.27538 85.2663 2.95075 84.8074 2.75597C84.3485 2.5612 83.824 2.43134 83.2995 2.43134C82.7095 2.43134 82.2506 2.49627 81.7917 2.75597C81.3328 2.95075 80.9395 3.21045 80.6117 3.6C80.2839 3.92463 80.0217 4.37911 79.8906 4.83358C79.6939 5.35299 79.6283 5.80746 79.6283 6.32687C79.6283 6.91119 79.6939 7.4306 79.8906 7.88508C80.0872 8.33955 80.3495 8.79403 80.6772 9.11866C81.005 9.44328 81.3984 9.76791 81.8573 9.96269C82.2506 10.1575 82.7095 10.2224 83.2995 10.2224ZM83.234 0.808212C84.0862 0.808212 84.8073 0.938062 85.5285 1.19776C86.184 1.45746 86.8396 1.84702 87.3641 2.30149C87.8885 2.75597 88.2819 3.40522 88.5441 4.05448C88.8063 4.70373 89.003 5.48284 89.003 6.32687C89.003 7.1709 88.8719 7.88507 88.5441 8.59925C88.2819 9.24851 87.8885 9.83284 87.3641 10.3522C86.8396 10.8716 86.2496 11.2612 85.5285 11.5209C84.8073 11.7806 84.0862 11.9104 83.234 11.9104C82.3817 11.9104 81.6606 11.7806 80.9395 11.5209C80.2839 11.2612 79.6283 10.8716 79.1039 10.3522C78.5794 9.83284 78.1861 9.24851 77.9238 8.59925C77.6616 7.95 77.4649 7.1709 77.4649 6.32687C77.4649 5.48284 77.5961 4.70373 77.9238 4.05448C78.1861 3.40522 78.5794 2.8209 79.1039 2.30149C79.6283 1.78209 80.2183 1.45746 80.9395 1.19776C81.6606 0.938062 82.4473 0.808212 83.234 0.808212ZM66.3202 2.30149C66.8447 1.78209 67.5002 1.45746 68.1558 1.19776C68.8769 0.938062 69.5981 0.808212 70.4503 0.808212C71.3026 0.808212 72.0892 0.938062 72.8104 1.19776C73.5315 1.45746 74.056 1.78209 74.5149 2.17164L73.2037 3.6C72.9415 3.27538 72.5481 3.01567 72.0892 2.8209C71.5648 2.62612 71.0403 2.49627 70.5159 2.49627C69.9259 2.49627 69.467 2.5612 69.0081 2.8209C68.5492 3.01567 68.1558 3.27538 67.828 3.66493C67.5002 3.98955 67.238 4.44403 67.1069 4.89851C66.9102 5.41791 66.8447 5.87239 66.8447 6.39179C66.8447 6.97612 66.9102 7.49552 67.1069 7.95C67.3036 8.40448 67.5002 8.85896 67.828 9.18358C68.1558 9.50821 68.5492 9.83284 69.0081 10.0276C69.467 10.2224 69.9914 10.2873 70.5814 10.2873C71.3681 10.2873 72.0892 10.1575 72.6793 9.89776V7.23582H70.4503V5.67761H74.5149V11.1313C73.9904 11.391 73.4004 11.5858 72.7448 11.7157C72.0892 11.8455 71.3681 11.9104 70.5159 11.9104C69.6636 11.9104 68.8769 11.7806 68.1558 11.5209C67.4347 11.2612 66.8447 10.8716 66.3202 10.3522C65.7957 9.83284 65.4024 9.24851 65.1402 8.59925C64.878 7.95 64.7468 7.1709 64.7468 6.32687C64.7468 5.48284 64.8779 4.70373 65.2057 4.05448C65.4024 3.40522 65.7957 2.8209 66.3202 2.30149ZM62.1901 11.391C61.9279 11.5858 61.6656 11.7157 61.3379 11.7157C61.2067 11.7157 61.0101 11.7157 60.879 11.6507C60.7478 11.5858 60.6167 11.5209 60.4856 11.391C60.3545 11.3261 60.2889 11.1963 60.2234 11.0664C60.1578 10.9366 60.1578 10.8067 60.1578 10.6119C60.1578 10.2873 60.2889 10.0276 60.4856 9.76791C60.7478 9.50821 61.0101 9.44328 61.3379 9.44328C61.6656 9.44328 61.9279 9.57313 62.1901 9.76791C62.4523 9.96269 62.5834 10.2873 62.5834 10.547C62.5834 10.8067 62.3868 11.1963 62.1901 11.391ZM57.4044 8.7291C57.0766 9.37836 56.6177 9.96269 56.0277 10.3522C55.4377 10.7418 54.7821 11.1313 54.1266 11.3261C53.471 11.5209 52.7499 11.6507 52.0287 11.6507H48.2264V1.06791H52.0287C52.7499 1.06791 53.4054 1.13284 54.1266 1.32761C54.7821 1.52239 55.4377 1.78209 56.0277 2.23657C56.6177 2.62612 57.0766 3.21045 57.4044 3.8597C57.7322 4.50896 57.9289 5.35299 57.9289 6.39179C57.9289 7.30075 57.7322 8.07985 57.4044 8.7291ZM54.5199 9.24851C54.9133 8.9888 55.241 8.59925 55.5033 8.14478C55.7655 7.6903 55.8966 7.10597 55.8966 6.39179C55.8966 5.61269 55.7655 5.02836 55.5033 4.50896C55.241 4.05448 54.9133 3.66493 54.5199 3.40523C54.1266 3.14552 53.6677 2.95075 53.2088 2.8209C52.7499 2.75597 52.2254 2.69105 51.7665 2.69105H50.1931V10.0276H51.7665C52.291 10.0276 52.7499 9.96269 53.2088 9.83284C53.6677 9.70299 54.1266 9.50821 54.5199 9.24851ZM40.1629 11.9104C39.5729 11.9104 38.9828 11.8455 38.4584 11.6507C37.9339 11.456 37.475 11.1963 37.0817 10.8067C36.6883 10.4172 36.3606 10.0276 36.1639 9.50821C35.9672 8.98881 35.8361 8.40448 35.8361 7.75522V1.06791H37.7373V7.6903C37.7373 8.01493 37.8028 8.33955 37.8684 8.59925C37.9339 8.92388 38.065 9.18358 38.2617 9.37836C38.4584 9.63806 38.7206 9.83284 38.9828 9.96269C39.3106 10.0925 39.6384 10.1575 40.0973 10.1575C40.5562 10.1575 40.9496 10.0925 41.2118 9.96269C41.5396 9.83284 41.7362 9.63806 41.9329 9.37836C42.1296 9.11866 42.2607 8.85895 42.3263 8.59925C42.3918 8.27463 42.4574 8.01493 42.4574 7.6903V1.06791H44.3585V7.75522C44.3585 8.40448 44.2274 8.98881 44.0308 9.50821C43.8341 10.0276 43.5063 10.4172 43.1129 10.8067C42.7196 11.1963 42.2607 11.456 41.7362 11.6507C41.3429 11.8455 40.7529 11.9104 40.1629 11.9104ZM26.8548 10.2224C27.3792 10.2224 27.9037 10.1575 28.3626 9.96269C28.8215 9.76791 29.2148 9.50821 29.5426 9.11866C29.8704 8.7291 30.1326 8.33955 30.3293 7.88508C30.526 7.4306 30.5915 6.91119 30.5915 6.32687C30.5915 5.80746 30.526 5.28806 30.3293 4.83358C30.1982 4.37911 29.9359 3.98955 29.6082 3.6C29.2804 3.27538 28.887 2.95075 28.4281 2.75597C27.9692 2.5612 27.4448 2.43134 26.9203 2.43134C26.3959 2.43134 25.8714 2.49627 25.4125 2.75597C24.9536 2.95075 24.5602 3.21045 24.2325 3.6C23.9047 3.92463 23.6424 4.37911 23.5113 4.83358C23.3147 5.35299 23.2491 5.80746 23.2491 6.32687C23.2491 6.91119 23.3147 7.4306 23.5113 7.88508C23.708 8.33955 23.9702 8.79403 24.298 9.11866C24.6258 9.44328 25.0191 9.76791 25.4781 9.96269C25.8058 10.1575 26.3303 10.2224 26.8548 10.2224ZM26.8548 0.808212C27.707 0.808212 28.4281 0.938062 29.1493 1.19776C29.8048 1.45746 30.4604 1.84702 30.9849 2.30149C31.5093 2.8209 31.9027 3.40522 32.1649 4.05448C32.4271 4.70373 32.6238 5.48284 32.6238 6.32687C32.6238 7.1709 32.4927 7.88507 32.1649 8.59925C31.9027 9.24851 31.5093 9.83284 30.9849 10.3522C30.4604 10.8716 29.8704 11.2612 29.1493 11.5209C28.4281 11.7806 27.707 11.9104 26.8548 11.9104C26.0025 11.9104 25.2814 11.7806 24.5602 11.5209C23.9047 11.2612 23.2491 10.8716 22.7246 10.3522C22.2002 9.83284 21.8068 9.24851 21.5446 8.59925C21.2824 7.95 21.0857 7.1709 21.0857 6.32687C21.0857 5.48284 21.2168 4.70373 21.5446 4.05448C21.8068 3.40522 22.2002 2.8209 22.7246 2.30149C23.2491 1.78209 23.8391 1.45746 24.5602 1.19776C25.2814 0.938062 26.0025 0.808212 26.8548 0.808212ZM19.3812 9.96269V11.6507H12.9566V1.06791H14.8578V9.96269H19.3812ZM6.26978 2.49627C5.74532 2.49627 5.22087 2.62612 4.76197 2.8209C4.30307 3.01567 3.90972 3.27538 3.58194 3.66493C3.25415 3.98955 2.99192 4.44403 2.8608 4.89851C2.66413 5.41791 2.59858 5.87239 2.59858 6.39179C2.59858 6.97612 2.66413 7.49552 2.8608 7.95C3.05748 8.40448 3.25415 8.85896 3.58194 9.18358C3.90972 9.50821 4.30306 9.76791 4.69641 9.96269C5.15531 10.1575 5.61421 10.2224 6.20422 10.2224C6.79424 10.2224 7.3187 10.0925 7.71204 9.89776C8.17094 9.70298 8.49873 9.37836 8.76096 8.98881L10.2688 10.0276C9.80987 10.6119 9.21986 11.0664 8.56429 11.391C7.90871 11.7157 7.05647 11.8455 6.13866 11.8455C5.28642 11.8455 4.49973 11.7157 3.84416 11.456C3.18859 11.1963 2.53302 10.8067 2.00856 10.2873C1.4841 9.76791 1.09076 9.18358 0.828531 8.53433C0.566302 7.88508 0.369629 7.10597 0.369629 6.26194C0.369629 5.41791 0.500745 4.63881 0.828531 3.98955C1.09076 3.3403 1.54966 2.75597 2.07412 2.23657C2.59858 1.71717 3.25415 1.39254 3.90972 1.13284C4.63085 0.873137 5.35198 0.743286 6.20422 0.743286C6.53201 0.743286 6.92535 0.808212 7.25314 0.808212C7.64648 0.873137 7.97427 0.938062 8.30206 1.13284C8.62984 1.32761 8.95763 1.45747 9.28542 1.65224C9.6132 1.84702 9.80987 2.10672 10.0721 2.36642L8.62984 3.47015C8.36761 3.0806 7.97427 2.8209 7.51537 2.62612C7.18758 2.5612 6.72868 2.49627 6.26978 2.49627Z" fill="#F8F9FA"/>
</svg>
