<svg width="20" height="21" viewBox="0 0 20 21" fill="none" xmlns="http://www.w3.org/2000/svg">
<g id="USWDS Components">
<g id="Icons">
<g id="Fill">
<path id="Vector" fill-rule="evenodd" clip-rule="evenodd" d="M10 0.779053C4.48 0.779053 0 5.25905 0 10.7791C0 16.2991 4.48 20.7791 10 20.7791C15.52 20.7791 20 16.2991 20 10.7791C20 5.25905 15.52 0.779053 10 0.779053ZM11 17.7791H9V15.7791H11V17.7791ZM13.07 10.0291L12.17 10.9491C11.45 11.6791 11 12.2791 11 13.7791H9V13.2791C9 12.1791 9.45 11.1791 10.17 10.4491L11.41 9.18905C11.78 8.82905 12 8.32905 12 7.77905C12 6.67905 11.1 5.77905 10 5.77905C8.9 5.77905 8 6.67905 8 7.77905H6C6 5.56905 7.79 3.77905 10 3.77905C12.21 3.77905 14 5.56905 14 7.77905C14 8.65905 13.64 9.45905 13.07 10.0291Z" fill="#07648D"/>
</g>
</g>
</g>
</svg>
